<?xml version="1.0" encoding="UTF-8"?>
<svg width="59px" height="59px" viewBox="0 0 59 59" version="1.1" xmlns="http://www.w3.org/2000/svg" xmlns:xlink="http://www.w3.org/1999/xlink">
    <!-- Generator: Sketch 42 (36781) - http://www.bohemiancoding.com/sketch -->
    <title>Sheild</title>
    <desc>Created with Sketch.</desc>
    <defs></defs>
    <g id="Elements" stroke="none" stroke-width="1" fill="none" fill-rule="evenodd">
        <g id="Iconography" transform="translate(-42.000000, -457.000000)">
            <g id="Sheild" transform="translate(42.000000, 457.000000)">
                <path d="M29.5,17.260675 C22.7511489,17.260675 17.2606306,22.7512016 17.2606306,29.5000628 C17.2606306,36.2489239 22.7511489,41.7394505 29.5,41.7394505 C36.2488511,41.7394505 41.7393694,36.2489239 41.7393694,29.5000628 C41.7393694,22.7512016 36.2488511,17.260675 29.5,17.260675 L29.5,17.260675 L29.5,17.260675 L29.5,17.260675 L29.5,17.260675 L29.5,17.260675 Z M36.072102,28.5585714 C35.9369041,25.1075662 35.0632014,22.0966768 33.7350729,20.0527618 C37.0669431,21.5523693 39.4677425,24.7621016 39.8117001,28.5585714 L36.072102,28.5585714 Z M28.55851,19.380788 L28.55851,28.5585714 L24.8136396,28.5585714 C24.9207184,26.0425299 25.4552336,23.7171717 26.3476406,21.9322296 C26.985092,20.6574503 27.7587457,19.7764655 28.55851,19.380788 L28.55851,19.380788 L28.55851,19.380788 L28.55851,19.380788 L28.55851,19.380788 L28.55851,19.380788 Z M28.55851,30.4415541 L28.55851,39.6193375 C27.7587457,39.2236601 26.985092,38.3428007 26.3476406,37.0678959 C25.4552336,35.2830793 24.9207184,32.9575957 24.8136396,30.4415541 L28.55851,30.4415541 L28.55851,30.4415541 L28.55851,30.4415541 L28.55851,30.4415541 L28.55851,30.4415541 L28.55851,30.4415541 Z M30.44149,39.6193375 L30.44149,30.4415541 L34.1863604,30.4415541 C34.0792816,32.9575957 33.5447664,35.2829538 32.6523594,37.0678959 C32.014908,38.3426752 31.2412543,39.2236601 30.44149,39.6193375 L30.44149,39.6193375 L30.44149,39.6193375 L30.44149,39.6193375 L30.44149,39.6193375 L30.44149,39.6193375 Z M30.44149,28.5585714 L30.44149,19.380788 C31.2412543,19.7764655 32.014908,20.6573248 32.6523594,21.9322296 C33.5447664,23.7170462 34.0792816,26.0425299 34.1863604,28.5585714 L30.44149,28.5585714 L30.44149,28.5585714 L30.44149,28.5585714 L30.44149,28.5585714 L30.44149,28.5585714 L30.44149,28.5585714 Z M25.2650526,20.0527618 C23.9367986,22.0966768 23.0630959,25.1074407 22.9280235,28.5585714 L19.1884254,28.5585714 C19.5322575,24.7621016 21.9330569,21.5523693 25.2650526,20.0527618 L25.2650526,20.0527618 L25.2650526,20.0527618 L25.2650526,20.0527618 L25.2650526,20.0527618 L25.2650526,20.0527618 Z M19.1882999,30.4415541 L22.927898,30.4415541 C23.0630959,33.8925593 23.9367986,36.9034487 25.2649271,38.9473637 C21.9330569,37.4477563 19.5322575,34.2380239 19.1882999,30.4415541 L19.1882999,30.4415541 L19.1882999,30.4415541 L19.1882999,30.4415541 L19.1882999,30.4415541 L19.1882999,30.4415541 Z M33.7349474,38.9473637 C35.0632014,36.9034487 35.9369041,33.8926849 36.0719765,30.4415541 L39.8115746,30.4415541 C39.4677425,34.2380239 37.0669431,37.4477563 33.7349474,38.9473637 L33.7349474,38.9473637 L33.7349474,38.9473637 L33.7349474,38.9473637 L33.7349474,38.9473637 L33.7349474,38.9473637 Z" id="globe" fill="#037EF3"></path>
                <path d="M58.6815439,10.1401131 C58.4695204,9.95281905 58.1841862,9.87097207 57.905003,9.91716791 C56.2909126,10.1839238 54.6474478,10.3192475 53.0201765,10.319373 C44.5229159,10.3196241 36.4106618,6.75714629 30.1779983,0.288347422 C30.0004961,0.104066179 29.7558342,0 29.5,0 C29.2441658,0 28.9995039,0.104066179 28.8220017,0.28822189 C22.5898403,6.75651863 14.4775863,10.3189964 5.97969793,10.319373 C4.35305435,10.319373 2.70971501,10.1840493 1.09499697,9.91716791 C0.815939349,9.8710976 0.530605127,9.95294458 0.318456057,10.1401131 C0.106306987,10.3272815 -0.0104377678,10.6001885 0.000734579626,10.882887 C0.355990123,19.928485 2.10201463,28.0805449 5.19022722,35.1128577 C7.67023729,40.7602995 11.0155394,45.7006185 15.1332399,49.7964825 C22.1675507,56.7937719 28.9453997,58.8753465 29.2304828,58.9605829 C29.3184807,58.9868191 29.4092404,59 29.5,59 C29.5907596,59 29.6816448,58.9869447 29.7695172,58.9605829 C30.0546003,58.8753465 36.8324493,56.7937719 43.8667601,49.7964825 C47.9843351,45.7006185 51.3296372,40.7602995 53.8097728,35.1128577 C56.8981109,28.0805449 58.6440099,19.928485 58.9992654,10.882887 C59.0104378,10.6001885 58.893693,10.3274071 58.6815439,10.1401131 L58.6815439,10.1401131 L58.6815439,10.1401131 L58.6815439,10.1401131 L58.6815439,10.1401131 L58.6815439,10.1401131 Z M42.6140764,48.3866306 C36.6766641,54.3225454 30.8089221,56.6078587 29.4991213,57.0666789 C28.195597,56.612629 22.3914998,54.3607072 16.4612428,48.4616989 C10.3612666,42.3937242 2.9541258,31.1603514 1.93455495,11.9431318 C3.27837495,12.1153619 4.63449708,12.2023557 5.97982346,12.2023557 C10.4974689,12.2022302 14.9267397,11.2503197 19.1447403,9.37311143 C22.9695746,7.67076951 26.4490704,5.28716444 29.5001255,2.28054315 C32.5514317,5.28754104 36.030802,7.67139717 39.8553853,9.37348803 C44.0732603,11.2506963 48.5025311,12.2024813 53.0204276,12.2023557 C54.3661306,12.2023557 55.7221272,12.1152364 57.0655706,11.9431318 C56.0495146,31.1044896 48.6815398,42.3206645 42.6140764,48.3866306 L42.6140764,48.3866306 L42.6140764,48.3866306 L42.6140764,48.3866306 L42.6140764,48.3866306 L42.6140764,48.3866306 Z M28.9049783,7.02791921 C22.3519572,12.372954 14.5619438,15.2466367 6.37700669,15.3384007 C6.11037673,15.3414135 5.85768083,15.4571542 5.68130838,15.6571269 C5.50493592,15.8570997 5.42170821,16.1223492 5.45208696,16.3872221 C6.14000228,22.380254 7.54671381,27.8813253 9.63318108,32.7379143 C11.7972271,37.7752697 14.7091928,42.1858429 18.2882355,45.846989 C22.6115574,50.2694878 26.9289792,52.5610778 29.1178806,53.5333245 C29.2395211,53.5874289 29.3698233,53.6144183 29.5001255,53.6144183 C29.6304277,53.6144183 29.76073,53.5874289 29.8823705,53.5333245 C31.7450142,52.7059419 35.4490867,50.7819102 39.3277743,47.1925685 C39.7095171,46.8394465 39.7324894,46.2436707 39.3793679,45.8620529 C39.0262464,45.4803095 38.4305971,45.4573371 38.0488543,45.8104592 C34.6198224,48.9836617 31.3504671,50.7777676 29.4998745,51.6386673 C27.339971,50.6347865 23.4988175,48.4835415 19.6346916,44.5306586 C16.2183384,41.0358426 13.4352941,36.8180868 11.3631375,31.9945128 C9.46785545,27.5828098 8.15228015,22.608346 7.44792013,17.1947706 C15.4330103,16.8840785 23.0215448,14.0528256 29.5,8.96349992 C35.9789573,14.0532022 43.5673663,16.8847061 51.5520799,17.1950217 C50.8477199,22.608597 49.5321446,27.5830608 47.6368625,31.9947638 C45.8269422,36.2080004 43.4654343,39.9729616 40.6178666,43.1853302 C40.2729047,43.5744799 40.3088068,44.1695025 40.6978305,44.5143394 C41.0869797,44.8593018 41.6820013,44.8233996 42.0268377,44.4343754 C45.0079715,41.0713682 47.4774369,37.1361854 49.3669444,32.7380399 C51.4534117,27.8814508 52.8599977,22.380254 53.5480386,16.3873476 C53.5784173,16.1224747 53.4951896,15.8572252 53.3188172,15.6572525 C53.1424447,15.4572797 52.8897488,15.3414135 52.6231188,15.3385263 C44.4386839,15.2472644 36.6486705,12.3735816 30.0951472,7.02791921 C29.7486789,6.74534627 29.2513211,6.74534627 28.9049783,7.02791921 Z" id="shield" fill="#555555"></path>
            </g>
        </g>
    </g>
</svg>