<?xml version="1.0" encoding="UTF-8"?>
<svg width="59px" height="59px" viewBox="0 0 59 59" version="1.1" xmlns="http://www.w3.org/2000/svg" xmlns:xlink="http://www.w3.org/1999/xlink">
    <!-- Generator: Sketch 42 (36781) - http://www.bohemiancoding.com/sketch -->
    <title>Logistics</title>
    <desc>Created with Sketch.</desc>
    <defs></defs>
    <g id="Elements" stroke="none" stroke-width="1" fill="none" fill-rule="evenodd">
        <g id="Iconography" transform="translate(-42.000000, -319.000000)">
            <g id="Logistics" transform="translate(42.000000, 319.000000)">
                <path d="M48.2806015,25.909034 L48.2806015,2.02169149 C48.2806015,0.906968085 47.3736354,0 46.2590399,0 L7.1246742,0 C6.00995317,0 5.10298701,0.906968085 5.10298701,2.02169149 L5.10298701,5.20580851 L0.520454212,7.49701702 C0.201478295,7.65644255 0,7.98244894 0,8.33908511 C0,8.69572128 0.201478295,9.02172766 0.520454212,9.18115319 L5.10298701,11.4724872 L5.10298701,25.9089085 C5.10298701,27.0237574 6.00995317,27.9307255 7.1246742,27.9307255 L46.2590399,27.9307255 C47.3737609,27.9308511 48.2806015,27.023883 48.2806015,25.909034 L48.2806015,25.909034 L48.2806015,25.909034 L48.2806015,25.909034 L48.2806015,25.909034 L48.2806015,25.909034 Z M3.04677862,8.33908511 L6.46563305,6.62971702 C6.78460897,6.47016596 6.98608726,6.14415957 6.98608726,5.78764894 L6.98608726,2.02169149 C6.98608726,1.94524255 7.04835096,1.88297872 7.12479973,1.88297872 L46.2591654,1.88297872 C46.3356142,1.88297872 46.3977523,1.94524255 46.3977523,2.02169149 L46.3977523,18.5159574 L6.98596173,18.5159574 L6.98596173,10.8906468 C6.98596173,10.5340106 6.78448344,10.2080043 6.46550752,10.0485787 L3.04677862,8.33908511 L3.04677862,8.33908511 L3.04677862,8.33908511 L3.04677862,8.33908511 L3.04677862,8.33908511 L3.04677862,8.33908511 Z M6.98596173,25.909034 L6.98596173,20.3989362 L46.3976268,20.3989362 L46.3976268,25.909034 C46.3976268,25.9856085 46.3354886,26.0478723 46.2590399,26.0478723 L7.1246742,26.0478723 C7.04822543,26.0478723 6.98596173,25.9856085 6.98596173,25.909034 L6.98596173,25.909034 L6.98596173,25.909034 L6.98596173,25.909034 L6.98596173,25.909034 Z M43.5731647,22.2819149 L9.81042381,22.2819149 C9.29047172,22.2819149 8.86893645,22.7034511 8.86893645,23.2234043 C8.86893645,23.7433574 9.29047172,24.1648936 9.81042381,24.1648936 L43.5731647,24.1648936 C44.0932424,24.1648936 44.5146521,23.7433574 44.5146521,23.2234043 C44.5146521,22.7034511 44.0932424,22.2819149 43.5731647,22.2819149 L43.5731647,22.2819149 L43.5731647,22.2819149 L43.5731647,22.2819149 L43.5731647,22.2819149 Z M58.4794203,38.566166 L53.8967619,36.2749574 L53.8967619,33.0908404 C53.8967619,31.976117 52.9897958,31.0691489 51.8752003,31.0691489 L12.7409601,31.0691489 C11.6262391,31.0691489 10.7192729,31.976117 10.7192729,33.0908404 L10.7192729,56.978183 C10.7192729,58.0930319 11.6262391,59 12.7409601,59 L51.8753258,59 C52.9900468,59 53.8968875,58.0930319 53.8968875,56.978183 L53.8968875,42.5417617 L58.4795458,40.2504277 C58.7983962,40.0910021 59,39.7649957 59,39.4083596 C59,39.0517234 58.7983962,38.7255915 58.4794203,38.566166 L58.4794203,38.566166 L58.4794203,38.566166 L58.4794203,38.566166 L58.4794203,38.566166 L58.4794203,38.566166 Z M51.8752003,57.1170213 L12.7409601,57.1170213 C12.6645114,57.1170213 12.6022477,57.0547574 12.6022477,56.978183 L12.6022477,51.4680851 L52.0139127,51.4680851 L52.0139127,56.978183 C52.0139127,57.0547574 51.9517746,57.1170213 51.8752003,57.1170213 L51.8752003,57.1170213 L51.8752003,57.1170213 L51.8752003,57.1170213 L51.8752003,57.1170213 Z M52.5342414,41.1177277 C52.215391,41.2771532 52.0137872,41.6031596 52.0137872,41.9597957 L52.0137872,49.5851064 L12.6022477,49.5851064 L12.6022477,33.0908404 C12.6022477,33.0143915 12.6645114,32.9521277 12.7409601,32.9521277 L51.8753258,32.9521277 C51.9517746,32.9521277 52.0139127,33.0143915 52.0139127,33.0908404 L52.0139127,36.8567979 C52.0139127,37.213434 52.215391,37.5394404 52.5343669,37.698866 L55.9532214,39.408234 L52.5342414,41.1177277 L52.5342414,41.1177277 L52.5342414,41.1177277 L52.5342414,41.1177277 L52.5342414,41.1177277 L52.5342414,41.1177277 Z M49.1894507,53.3510638 L15.4267097,53.3510638 C14.9067576,53.3510638 14.4852224,53.7726 14.4852224,54.2925532 C14.4852224,54.8125064 14.9067576,55.2340426 15.4267097,55.2340426 L49.1894507,55.2340426 C49.7095283,55.2340426 50.130938,54.8125064 50.130938,54.2925532 C50.130938,53.7726 49.7094027,53.3510638 49.1894507,53.3510638 L49.1894507,53.3510638 L49.1894507,53.3510638 L49.1894507,53.3510638 L49.1894507,53.3510638 Z" id="speech-bubbles" fill="#555555"></path>
                <text id="Help!" font-family="ArialRoundedMTBold, Arial Rounded MT Bold" font-size="10" font-weight="normal" fill="#037EF3">
                    <tspan x="14" y="14">Help!</tspan>
                </text>
                <path d="M28.3783899,47 L28.3783899,47 C28.1693899,47 27.9999496,46.8306101 28,46.6215596 L28,40.190344 C28,39.9812936 28.1693899,39.8119037 28.3784404,39.8119037 L29.926867,39.8119037 C31.3767982,39.8119037 32.556422,38.6322798 32.556422,37.1823486 C32.556422,36.530422 33.086844,36 33.7387707,36 C34.3906973,36 34.9211193,36.530422 34.9211193,37.1823486 C34.9211193,38.1334954 34.7279129,39.0444266 34.3695551,39.8119541 L36.5161697,39.8119037 C37.1680963,39.8119037 37.6985184,40.3423257 37.6985184,40.9942523 C37.6985184,41.3981239 37.4949679,41.7553716 37.1849496,41.9687615 C37.3015596,42.1519266 37.3692248,42.3693028 37.3692248,42.6020688 C37.3692248,43.0059404 37.1656743,43.3631881 36.8557064,43.576578 C36.9723165,43.7597431 37.0399312,43.9770688 37.0399312,44.2098349 C37.0399312,44.6137064 36.8363807,44.9709541 36.5264129,45.184344 C36.6429725,45.3675092 36.7106376,45.5848853 36.7106376,45.8176514 C36.7106376,46.469578 36.1802156,47 35.528289,47 L28.3783899,47 Z M33.3132523,37.1823486 L33.3132523,37.1823486 C33.3132523,38.9216606 31.9950184,40.3582706 30.3052569,40.5470872 L30.3052569,46.2431193 L35.5283395,46.2431193 C35.762922,46.2431193 35.9538074,46.0524862 35.9538074,45.8178532 C35.9538074,45.5832202 35.762922,45.3923349 35.5283395,45.3923349 C35.319289,45.3923349 35.1498991,45.222945 35.1498991,45.0138945 C35.1498991,44.804844 35.319289,44.6354541 35.5283395,44.6354541 L35.8575826,44.6354541 C36.0922156,44.6354541 36.2830505,44.4446193 36.2830505,44.2099862 C36.2830505,43.9753532 36.0921651,43.7845183 35.8575826,43.7845183 L35.5283395,43.7845183 C35.319289,43.7845183 35.1498991,43.6151284 35.1498991,43.406078 C35.1498991,43.1970275 35.319289,43.0276376 35.5283395,43.0276376 L36.1868762,43.0276376 C36.4215092,43.0276376 36.612344,42.8368028 36.612344,42.6021697 C36.612344,42.3675367 36.4214587,42.1766514 36.1868762,42.1766514 L35.5283395,42.1766514 C35.319289,42.1766514 35.1498991,42.0072615 35.1498991,41.798211 C35.1498991,41.5891606 35.319289,41.4197706 35.5283395,41.4197706 L36.5161193,41.4197706 C36.7507523,41.4197706 36.9415872,41.2289358 36.9415872,40.9943028 C36.9415872,40.7596697 36.7507018,40.5688349 36.5161193,40.5688349 L33.7287294,40.5688853 C33.589867,40.5688853 33.462156,40.492844 33.3960046,40.3707844 C33.3298532,40.2487248 33.3358578,40.1002248 33.4116468,39.983867 C33.8969083,39.238844 34.1641881,38.2438991 34.1641881,37.1823486 C34.1641881,36.9477156 33.9733532,36.7568807 33.7387202,36.7568807 C33.5040872,36.7568807 33.3132523,36.9477661 33.3132523,37.1823486 Z" id="Combined-Shape" fill="#037EF3"></path>
            </g>
        </g>
    </g>
</svg>