<?xml version="1.0" encoding="UTF-8"?>
<svg width="59px" height="59px" viewBox="0 0 59 59" version="1.1" xmlns="http://www.w3.org/2000/svg" xmlns:xlink="http://www.w3.org/1999/xlink">
    <!-- Generator: Sketch 42 (36781) - http://www.bohemiancoding.com/sketch -->
    <title>Description</title>
    <desc>Created with Sketch.</desc>
    <defs></defs>
    <g id="Elements" stroke="none" stroke-width="1" fill="none" fill-rule="evenodd">
        <g id="Iconography" transform="translate(-409.000000, -319.000000)">
            <g id="Description" transform="translate(409.000000, 319.000000)">
                <path d="M57.3128709,28.6757229 L57.3128709,51.5179894 L53.0486858,51.5179894 L53.0486858,28.6757229 L57.3128709,28.6757229 Z M53.0485744,55.1956 L53.0485744,53.1176924 L57.3128709,53.1176924 L57.3128709,55.1956 C57.3128709,56.3211511 56.3564369,57.2369278 55.1807784,57.2369278 C54.0051198,57.2369278 53.0485744,56.3211511 53.0485744,55.1956 Z M58.9711394,27.704107 C58.9590582,27.6618044 58.952682,27.6452046 58.946194,27.6286049 C58.9344484,27.5981898 55.9594551,20.5038829 55.9594551,20.5038829 C55.8317077,20.1995183 55.5236374,20 55.1808895,20 C54.8381417,20 54.5300713,20.1995183 54.4023239,20.5038829 L51.4282256,27.5954053 C51.4085377,27.6463827 51.4022734,27.6623398 51.3972396,27.6787254 C51.3858295,27.721028 51.3812432,27.7370923 51.3778873,27.7537991 C51.3633451,27.8565034 51.3618909,27.8827417 51.3618909,27.9090872 L51.3618909,55.343663 C51.3618909,57.35973 53.0750708,59 55.1810014,59 C57.2867082,59 59,57.3598371 59,55.343663 L59,27.9090872 C58.9941831,27.8161285 58.9914984,27.8024204 58.9892612,27.788498 C58.9803121,27.7369852 58.9757258,27.7205996 58.9711394,27.704107 Z M56.9126301,27.0761265 L53.4489266,27.0761265 L55.1807784,22.9465464 L56.9126301,27.0761265 Z" id="Pen" fill="#037EF3"></path>
                <path d="M56.8408112,6.27114381 L56.8408112,1.43710519 C56.8408112,0.643248282 56.1977359,0 55.4040924,0 L1.43671883,0 C0.64326691,0 0,0.643248282 0,1.43710519 L0,6.27114381 L0,9.14516258 L0,59 L33.2738334,59 L33.2738334,49.875981 C33.2738334,49.0821241 32.630758,48.4388759 31.8371146,48.4388759 L9.09921925,48.4388759 C8.30576733,48.4388759 7.66250042,49.0821241 7.66250042,49.875981 L7.66250042,59 L2.87343766,59 L2.87343766,7.70997353 L2.87343766,2.87421038 L53.9675651,2.87421038 L53.9675651,15.9689212 C53.9675651,16.7627781 54.6106405,17.4060264 55.404284,17.4060264 C56.1979274,17.4060264 56.8410028,16.7627781 56.8410028,15.9689212 L56.8410028,9.14535419 L56.8408112,6.27114381 Z M10.5359381,51.3132779 L30.4003957,51.3132779 L30.4003957,59 L10.5359381,59 L10.5359381,51.3132779 L10.5359381,51.3132779 L10.5359381,51.3132779 Z M9.09921925,20.6550338 L47.7417835,20.6550338 C48.535427,20.6550338 49.1785024,20.0117856 49.1785024,19.2179286 L49.1785024,9.10166619 C49.1785024,8.30780929 48.535427,7.664561 47.7417835,7.664561 L9.09921925,7.664561 C8.30576733,7.664561 7.66250042,8.30780929 7.66250042,9.10166619 L7.66250042,19.2179286 C7.66250042,20.0117856 8.30576733,20.6550338 9.09921925,20.6550338 L9.09921925,20.6550338 L9.09921925,20.6550338 Z M10.5359381,10.5387714 L46.3050647,10.5387714 L46.3050647,17.7808235 L10.5359381,17.7808235 L10.5359381,10.5387714 L10.5359381,10.5387714 L10.5359381,10.5387714 Z M47.741592,23.5292442 L9.09921925,23.5292442 C8.30576733,23.5292442 7.66250042,24.1724925 7.66250042,24.9663494 C7.66250042,25.7602063 8.30576733,26.4034546 9.09921925,26.4034546 L47.7417835,26.4034546 C48.535427,26.4034546 49.1785024,25.7602063 49.1785024,24.9663494 C49.1785024,24.1724925 48.5352355,23.5292442 47.741592,23.5292442 L47.741592,23.5292442 L47.741592,23.5292442 L47.741592,23.5292442 Z M31.8371146,31.1938052 L9.09921925,31.1938052 C8.30576733,31.1938052 7.66250042,31.8370535 7.66250042,32.6309104 C7.66250042,33.4247673 8.30576733,34.0680156 9.09921925,34.0680156 L31.8371146,34.0680156 C32.630758,34.0680156 33.2738334,33.4247673 33.2738334,32.6309104 C33.2738334,31.8370535 32.630758,31.1938052 31.8371146,31.1938052 L31.8371146,31.1938052 L31.8371146,31.1938052 Z M44.8304165,31.1938052 L37.5839899,31.1938052 C36.7903464,31.1938052 36.147271,31.8370535 36.147271,32.6309104 C36.147271,33.4247673 36.7903464,34.0680156 37.5839899,34.0680156 L44.8304165,34.0680156 C45.62406,34.0680156 46.2671353,33.4247673 46.2671353,32.6309104 C46.2671353,31.8370535 45.62406,31.1938052 44.8304165,31.1938052 L44.8304165,31.1938052 L44.8304165,31.1938052 Z M31.8371146,36.942226 L9.09921925,36.942226 C8.30576733,36.942226 7.66250042,37.5854743 7.66250042,38.3793312 C7.66250042,39.1731881 8.30576733,39.8164363 9.09921925,39.8164363 L31.8371146,39.8164363 C32.630758,39.8164363 33.2738334,39.1731881 33.2738334,38.3793312 C33.2738334,37.5854743 32.630758,36.942226 31.8371146,36.942226 L31.8371146,36.942226 L31.8371146,36.942226 Z M44.5538002,36.942226 L37.5839899,36.942226 C36.7903464,36.942226 36.147271,37.5854743 36.147271,38.3793312 C36.147271,39.1731881 36.7903464,39.8164363 37.5839899,39.8164363 L44.5538002,39.8164363 C45.3474437,39.8164363 45.9905191,39.1731881 45.9905191,38.3793312 C45.9905191,37.5854743 45.3472522,36.942226 44.5538002,36.942226 L44.5538002,36.942226 L44.5538002,36.942226 Z M31.8371146,42.6906467 L9.09921925,42.6906467 C8.30576733,42.6906467 7.66250042,43.333895 7.66250042,44.1277519 C7.66250042,44.9216088 8.30576733,45.5648571 9.09921925,45.5648571 L31.8371146,45.5648571 C32.630758,45.5648571 33.2738334,44.9216088 33.2738334,44.1277519 C33.2738334,43.333895 32.630758,42.6906467 31.8371146,42.6906467 L31.8371146,42.6906467 L31.8371146,42.6906467 Z M44.5538002,42.6906467 L37.5839899,42.6906467 C36.7903464,42.6906467 36.147271,43.333895 36.147271,44.1277519 C36.147271,44.9216088 36.7903464,45.5648571 37.5839899,45.5648571 L44.5538002,45.5648571 C45.3474437,45.5648571 45.9905191,44.9216088 45.9905191,44.1277519 C45.9905191,43.333895 45.3472522,42.6906467 44.5538002,42.6906467 L44.5538002,42.6906467 L44.5538002,42.6906467 Z" id="Paper" fill="#4D5258"></path>
            </g>
        </g>
    </g>
</svg>