<?xml version="1.0" encoding="UTF-8"?>
<svg width="34px" height="60px" viewBox="0 0 34 60" version="1.1" xmlns="http://www.w3.org/2000/svg" xmlns:xlink="http://www.w3.org/1999/xlink">
    <!-- Generator: Sketch 42 (36781) - http://www.bohemiancoding.com/sketch -->
    <title>Learning</title>
    <desc>Created with Sketch.</desc>
    <defs></defs>
    <g id="Elements" stroke="none" stroke-width="1" fill="none" fill-rule="evenodd">
        <g id="Iconography" transform="translate(-416.000000, -457.000000)">
            <g id="Learning" transform="translate(416.000000, 457.000000)">
                <path d="M13.0938344,12.3164835 L13.3805028,13.4899341 C13.4379471,13.7250462 13.6454654,13.8901099 13.8836069,13.8901099 L19.2047725,13.8901099 C19.4429139,13.8901099 19.6504323,13.7249758 19.7078766,13.4899341 L19.994545,12.3164835 C21.9085249,11.1056879 23.0883793,8.95845275 23.0883793,6.65810989 C23.0884485,2.98683077 20.1527069,0 16.5442242,0 C12.9357416,0 10,2.98683077 10,6.65810989 C10,8.95845275 11.1798544,11.1056879 13.0938344,12.3164835 L13.0938344,12.3164835 L13.0938344,12.3164835 Z M16.5442242,1.05494505 C19.58096,1.05494505 22.051548,3.56852747 22.051548,6.65810989 C22.051548,8.65828571 20.9914902,10.5210374 19.2850286,11.5192264 C19.1626743,11.590822 19.0743304,11.7099604 19.0403201,11.8492132 L18.7994135,12.8351648 L14.2890349,12.8351648 L14.0481284,11.8492132 C14.0141181,11.7099604 13.925705,11.5907516 13.8034199,11.5192264 C12.0969583,10.5210374 11.0369004,8.65828571 11.0369004,6.65810989 C11.0369004,3.56852747 13.5074885,1.05494505 16.5442242,1.05494505 L16.5442242,1.05494505 L16.5442242,1.05494505 Z M19.2047725,14.9450549 L13.8836069,14.9450549 C13.597215,14.9450549 13.3651566,15.1811516 13.3651566,15.4725275 C13.3651566,15.7639033 13.597215,16 13.8836069,16 L19.2047725,16 C19.4911644,16 19.7232227,15.7639033 19.7232227,15.4725275 C19.7232227,15.1811516 19.4911644,14.9450549 19.2047725,14.9450549 L19.2047725,14.9450549 L19.2047725,14.9450549 Z M15.0042197,11.380044 C15.0628392,11.6200088 15.2743668,11.7803604 15.506909,11.7803604 C15.5483159,11.7803604 15.5904141,11.7752967 15.632374,11.7646066 C15.9102633,11.6943473 16.0794855,11.4082462 16.0104279,11.1254505 L15.5518414,9.24835165 L17.5365379,9.24835165 L17.0779514,11.1254505 C17.0088939,11.4082462 17.178116,11.6943473 17.4560053,11.7646066 C17.4979653,11.7752264 17.5401325,11.7803604 17.5814703,11.7803604 C17.8140125,11.7803604 18.0256093,11.6200088 18.0841596,11.380044 L18.7027053,8.84817582 C18.7033966,8.84543297 18.7036731,8.84261978 18.7042952,8.83987692 C18.7065764,8.82974945 18.7085119,8.81948132 18.7102401,8.80914286 C18.7115535,8.80112527 18.7128669,8.79317802 18.7138347,8.78523077 C18.7148025,8.77686154 18.7154937,8.76842198 18.7161159,8.75998242 C18.7168763,8.74992527 18.7174293,8.73986813 18.7176367,8.72981099 C18.7177058,8.72685714 18.7180514,8.7239033 18.7180514,8.72094945 C18.7180514,8.7168 18.7175675,8.71279121 18.7174293,8.70864176 C18.7172219,8.69788132 18.716738,8.68726154 18.7158394,8.67657143 C18.7152172,8.66925714 18.7143877,8.66201319 18.7135582,8.65476923 C18.712383,8.64513407 18.7110005,8.63556923 18.7092723,8.62607473 C18.7078207,8.61784615 18.7060925,8.60968791 18.7042261,8.60152967 C18.7023597,8.59337143 18.700355,8.58535385 18.6980738,8.57733626 C18.6955852,8.56826374 18.6928202,8.5594022 18.6898477,8.55054066 C18.6874974,8.54364835 18.685078,8.53675604 18.6824512,8.5300044 C18.6788566,8.52072088 18.6751237,8.51157802 18.6710453,8.50250549 C18.6682111,8.49617582 18.6652386,8.48998681 18.6621971,8.4837978 C18.6577729,8.47493626 18.6532106,8.46621538 18.6483026,8.45763516 C18.6447771,8.45137582 18.6410443,8.44518681 18.6372423,8.43906813 C18.6323343,8.43112088 18.6272189,8.42338462 18.6218962,8.41578901 C18.617403,8.40924835 18.6126332,8.40291868 18.6077943,8.39665934 C18.602679,8.38997802 18.5974253,8.38336703 18.5919643,8.3768967 C18.5862959,8.37021538 18.5804202,8.36367473 18.5744061,8.35727473 C18.5691525,8.35164835 18.5638989,8.34623297 18.5584379,8.34088791 C18.5517326,8.33434725 18.5448199,8.32801758 18.537769,8.32182857 C18.5322389,8.31704615 18.5267087,8.31233407 18.5210403,8.30769231 C18.5137129,8.30178462 18.5062472,8.29608791 18.4985742,8.2906022 C18.4923528,8.2861011 18.4860622,8.28181099 18.4797026,8.27759121 C18.472306,8.27273846 18.4648403,8.2680967 18.4571673,8.26366593 C18.4497016,8.25930549 18.4421668,8.25515604 18.4344937,8.25121758 C18.427581,8.24763077 18.4205301,8.24418462 18.4134101,8.24087912 C18.4044236,8.23672967 18.3952298,8.23286154 18.3859668,8.2292044 C18.3796071,8.22674286 18.3733166,8.22428132 18.3668187,8.2221011 C18.3565879,8.21851429 18.3461498,8.21541978 18.3355734,8.21246593 C18.3318406,8.21141099 18.3283151,8.2100044 18.3245823,8.20909011 C18.3218172,8.20838681 18.3190521,8.20810549 18.3162871,8.20747253 C18.3065402,8.20522198 18.2967242,8.20332308 18.28677,8.20156484 C18.2784748,8.20008791 18.2701796,8.19875165 18.2618844,8.1976967 C18.2544187,8.19678242 18.2468839,8.19614945 18.2392799,8.19551648 C18.228427,8.19467253 18.2175741,8.19403956 18.2067904,8.19382857 C18.2043018,8.19382857 18.2018824,8.19347692 18.199463,8.19347692 L14.8885708,8.19347692 C14.7290263,8.19347692 14.5783993,8.26823736 14.4801702,8.3960967 C14.3818721,8.52388571 14.3469631,8.69063736 14.3854667,8.84824615 L15.0042197,11.380044 L15.0042197,11.380044 L15.0042197,11.380044 L15.0042197,11.380044 Z" id="idea" fill="#037EF3"></path>
                <path d="M16.9308056,39.5713539 C22.3266073,39.5713539 26.7163987,35.1815546 26.7163987,29.7856108 C26.7163987,24.3897993 22.3266073,20 16.9308056,20 C11.5350039,20 7.14521252,24.3897993 7.14521252,29.7856108 C7.14521252,35.1815546 11.5350039,39.5713539 16.9308056,39.5713539 L16.9308056,39.5713539 L16.9308056,39.5713539 L16.9308056,39.5713539 Z M16.9308056,21.9834625 C21.232928,21.9834625 24.7329397,25.4834806 24.7329397,29.7856108 C24.7329397,34.0877411 21.232928,37.5878913 16.9308056,37.5878913 C12.6286831,37.5878913 9.12867147,34.0877411 9.12867147,29.7856108 C9.12867147,25.4834806 12.6286831,21.9834625 16.9308056,21.9834625 L16.9308056,21.9834625 L16.9308056,21.9834625 Z M16.9308056,43.538279 C24.839782,43.538279 31.3336266,49.7121367 31.8454913,57.4937892 L8.92556527,57.4937892 C8.37786614,57.4937892 7.9338358,57.9376881 7.9338358,58.4855205 C7.9338358,59.0333528 8.37786614,59.4772518 8.92556527,59.4772518 L32.8698817,59.4772518 C33.4175808,59.4772518 33.8616112,59.0333528 33.8616112,58.4855205 C33.8616112,49.1498912 26.2665502,41.5548164 16.9308056,41.5548164 C7.59506101,41.5548164 0,49.1498912 0,58.4855205 C0,59.0333528 0.444030343,59.4772518 0.991729474,59.4772518 L4.95864737,59.4772518 C5.5063465,59.4772518 5.95037685,59.0333528 5.95037685,58.4855205 C5.95037685,57.9376881 5.5063465,57.4937892 4.95864737,57.4937892 L2.01598768,57.4937892 C2.52798455,49.7121367 9.02196137,43.538279 16.9308056,43.538279 L16.9308056,43.538279 L16.9308056,43.538279 L16.9308056,43.538279 Z M16.9308056,34.2821204 C18.2307646,34.2821204 19.4675174,33.7172303 20.3238427,32.7322428 C20.6831132,32.3188892 20.6394771,31.6925117 20.2261243,31.3331083 C19.8126392,30.9737049 19.1862629,31.0174733 18.8269923,31.4308269 C18.3476564,31.9823617 17.6563549,32.2986579 16.9308056,32.2986579 C16.2052563,32.2986579 15.514087,31.9823617 15.0346188,31.4308269 C14.6752161,31.0174733 14.0488397,30.9738371 13.6354869,31.3331083 C13.222134,31.6925117 13.1783657,32.3188892 13.5377685,32.7322428 C14.3940938,33.7170981 15.6308466,34.2821204 16.9308056,34.2821204 L16.9308056,34.2821204 L16.9308056,34.2821204 L16.9308056,34.2821204 Z" id="People" fill="#525252"></path>
            </g>
        </g>
    </g>
</svg>